# xmcd
#
# Track frame offsets:
#	182
#	13597
#	26242
#	38457
#	49875
#	64795
#	83350
#	97750
#	120440
#	136227
#	149315
#	160207
#	174660
#	190550
#	201980
#	218047
#	233077
#	246080
#
# Disc length: 3710
#
# Revision: 4
# Processed by: cddbd v1.5.1PL0 Copyright (c) Steve Scherf et al.
# Submitted via: ExactAudioCopy v0.90b4
# Normalized: r3:DSETVAR1
#
DISCID=e50e7c12
DTITLE=Various Artist - Blues and Soul [CD4]
DYEAR=1994
DGENRE=Blues and Soul
TTITLE0=Dobie Gray - The In-Crowd
TTITLE1=Lowell Fulson - It's A Long Time
TTITLE2=Gladys Knight - Letter Full Of Tears
TTITLE3=Fats Domino - Blue Monday (Live)
TTITLE4=The Platters - Great Pretender
TTITLE5=James Brown - Bring It On
TTITLE6=JB Lenoir - Man Watch Your Woman
TTITLE7=The O'Jays - Peace
TTITLE8=Gloria Brooke - When Push Comes To Shove
TTITLE9=Temptations - I Can't Get Next To You
TTITLE10=Fats Domino - Walkin' To New Orleans (Live)
TTITLE11=The Del Vikings - Come Go With Me
TTITLE12=The Ink Spots - If I Didn't Care
TTITLE13=The Platters - Only You
TTITLE14=Dobie Gray - Drift Away
TTITLE15=Detroit Emeralds - Feel The Need In Me
TTITLE16=The Vandellas - Jimmy Mack
TTITLE17=Temptations - Papa Was A Rollin' Stone
EXTD=
EXTT0=
EXTT1=
EXTT2=
EXTT3=
EXTT4=
EXTT5=
EXTT6=
EXTT7=
EXTT8=
EXTT9=
EXTT10=
EXTT11=
EXTT12=
EXTT13=
EXTT14=
EXTT15=
EXTT16=
EXTT17=
PLAYORDER=
